<svg version="1.2" xmlns="http://www.w3.org/2000/svg" viewBox="0 0 413 473" width="413" height="473">
	<title>kube-core-svg</title>
	<style>
		.s0 { fill: #00112b;stroke: #000000 } 
		.s1 { fill: #e2e3db } 
		.s2 { fill: #326ce5;stroke: #ffffff;stroke-width: 0 } 
		.s3 { fill: #ffffff;stroke: #ffffff;stroke-width: .3 } 
	</style>
	<g id="layer3">
		<path id="path39" class="s0" d="m401.7 349.2l-195.6 112.9l-195.6-112.9v-225.8l195.6-113l195.6 113z" />
	</g>
	<g id="layer2">
		<g id="g6205">
			<path id="path73" class="s1" d="m206.1 398.3l-135.8-78.4" />
			<path id="path75" class="s1" d="m70.3 319.9l62.3-36" />
			<path id="path77" class="s1" d="m132.6 283.9l6 3.4" />
			<path id="path79" class="s1" d="m138.6 287.3l-57.1 33" />
			<path id="path81" class="s1" d="m81.5 320.3l124.6 72" />
			<path id="path85" class="s1" d="m206.1 398.3l-135.8-78.4" />
			<path id="path87" class="s1" d="m70.3 319.9l62.3-36" />
			<path id="path89" class="s1" d="m132.6 283.9l6 3.4" />
			<path id="path91" class="s1" d="m138.6 287.3l-57.1 33" />
			<path id="path93" class="s1" d="m81.5 320.3l124.6 72" />
			<path id="path97" class="s1" d="m206.1 386.3l-113.4-65.5" />
			<path id="path99" class="s1" d="m92.7 320.8l51.9-30" />
			<path id="path101" class="s1" d="m144.6 290.8l6 3.5" />
			<path id="path103" class="s1" d="m150.6 294.3l-46.7 27" />
			<path id="path105" class="s1" d="m103.9 321.3l102.2 59" />
			<path id="path121" class="s1" d="m206.1 386.3l-113.4-65.5" />
			<path id="path123" class="s1" d="m92.7 320.8l51.9-30" />
			<path id="path125" class="s1" d="m144.6 290.8l6 3.5" />
			<path id="path127" class="s1" d="m150.6 294.3l-46.7 27" />
			<path id="path129" class="s1" d="m103.9 321.3l102.2 59" />
			<path id="path133" class="s1" d="m206.1 374.3l-91-52.6" />
			<path id="path135" class="s1" d="m115.1 321.7l41.5-24" />
			<path id="path137" class="s1" d="m156.6 297.7l6 3.5" />
			<path id="path139" class="s1" d="m162.6 301.2l-36.3 21" />
			<path id="path141" class="s1" d="m126.3 322.2l79.8 46.1" />
			<path id="path145" class="s1" d="m206.1 362.3l-68.6-39.6" />
			<path id="path147" class="s1" d="m137.5 322.7l31.1-18" />
			<path id="path149" class="s1" d="m168.6 304.7l6 3.4" />
			<path id="path151" class="s1" d="m174.6 308.1l-25.9 15" />
			<path id="path153" class="s1" d="m148.7 323.1l57.4 33.2" />
			<path id="path219" class="s1" d="m206.2 398.3l135.8-78.4" />
			<path id="path221" class="s1" d="m342 319.9l-62.3-36" />
			<path id="path223" class="s1" d="m279.7 283.9l-6 3.4" />
			<path id="path225" class="s1" d="m273.7 287.3l57.1 33" />
			<path id="path227" class="s1" d="m330.8 320.3l-124.6 72" />
			<path id="path231" class="s1" d="m206.2 392.3l124.6-72l-57.1-33l6-3.4l62.3 36l-135.8 78.4" />
			<path id="path235" class="s1" d="m279.7 283.9l-6 3.4" />
			<path id="path237" class="s1" d="m279.7 283.9l62.3 36l-135.8 78.4l-135.9-78.4l62.3-36l6 3.4l-57.1 33l124.7 72l124.6-72l-57.1-33" />
			<path id="path243" class="s1" d="m206.2 386.3l113.4-65.5" />
			<path id="path245" class="s1" d="m319.6 320.8l-51.9-30" />
			<path id="path247" class="s1" d="m267.7 290.8l-6 3.5" />
			<path id="path249" class="s1" d="m261.7 294.3l46.7 27" />
			<path id="path251" class="s1" d="m308.4 321.3l-102.2 59" />
			<path id="path267" class="s1" d="m206.2 386.3l113.4-65.5" />
			<path id="path269" class="s1" d="m319.6 320.8l-51.9-30" />
			<path id="path271" class="s1" d="m267.7 290.8l-6 3.5" />
			<path id="path273" class="s1" d="m261.7 294.3l46.7 27" />
			<path id="path275" class="s1" d="m308.4 321.3l-102.2 59" />
			<path id="path279" class="s1" d="m206.2 374.3l91.1-52.6" />
			<path id="path281" class="s1" d="m297.3 321.7l-41.6-24" />
			<path id="path283" class="s1" d="m255.7 297.7l-6 3.5" />
			<path id="path285" class="s1" d="m249.7 301.2l36.4 21" />
			<path id="path287" class="s1" d="m286.1 322.2l-79.9 46.1" />
			<path id="path291" class="s1" d="m206.2 362.3l68.7-39.6" />
			<path id="path293" class="s1" d="m274.9 322.7l-31.2-18" />
			<path id="path295" class="s1" d="m243.7 304.7l-6 3.4" />
			<path id="path297" class="s1" d="m237.7 308.1l26 15" />
			<path id="path299" class="s1" d="m263.7 323.1l-57.5 33.2" />
			<path id="path315" class="s1" d="m308.4 321.3l-46.7-27l6-3.5l51.9 30l-113.4 65.5l-113.5-65.5l51.9-30l6 3.5l-46.7 27l102.3 59z" />
			<path id="path327" class="s1" d="m286.1 322.2l-36.4-21l6-3.5l41.6 24l-91.1 52.6l-91.1-52.6l41.5-24l6 3.5l-36.3 21l79.9 46.1z" />
			<path id="path339" class="s1" d="m263.7 323.1l-26-15l6-3.4l31.2 18l-68.7 39.6l-68.7-39.6l31.1-18l6 3.4l-25.9 15l57.5 33.2z" />
			<path id="path351" class="s1" d="m241.3 324.1l-15.6-9l6-3.5l20.8 12l-46.3 26.7l-46.3-26.7l20.7-12l6 3.5l-15.5 9l35.1 20.2z" />
			<path id="path365" class="s1" d="m346.4 155.3v156.8" />
			<path id="path367" class="s1" d="m346.4 312.1l-62.4-36" />
			<path id="path369" class="s1" d="m284 276.1v-6.9" />
			<path id="path371" class="s1" d="m284 269.2l57.2 33" />
			<path id="path373" class="s1" d="m341.2 302.2v-143.9" />
			<path id="path377" class="s1" d="m346.4 155.3v156.8" />
			<path id="path379" class="s1" d="m346.4 312.1l-62.4-36" />
			<path id="path381" class="s1" d="m284 276.1v-6.9" />
			<path id="path383" class="s1" d="m284 269.2l57.2 33" />
			<path id="path385" class="s1" d="m341.2 302.2v-143.9" />
			<path id="path389" class="s1" d="m336 161.3v130.9" />
			<path id="path391" class="s1" d="m336 292.2l-52-30" />
			<path id="path393" class="s1" d="m284 262.2v-6.9" />
			<path id="path395" class="s1" d="m284 255.3l46.8 27" />
			<path id="path397" class="s1" d="m330.8 282.3v-118" />
			<path id="path401" class="s1" d="m346.4 312.1l-62.4-36v-6.9l57.2 33l-0.1-144l-124.6-72v66l-6-3.4v-72l135.8 78.4z" />
			<path id="path425" class="s1" d="m325.6 167.3v105.1" />
			<path id="path427" class="s1" d="m325.6 272.4l-41.6-24" />
			<path id="path429" class="s1" d="m284 248.4v-7" />
			<path id="path431" class="s1" d="m284 241.4l36.4 21" />
			<path id="path433" class="s1" d="m320.4 262.4v-92.1" />
			<path id="path437" class="s1" d="m315.2 173.3v79.2" />
			<path id="path439" class="s1" d="m315.2 252.5l-31.2-18" />
			<path id="path441" class="s1" d="m284 234.5v-6.9" />
			<path id="path443" class="s1" d="m284 227.6l26 15" />
			<path id="path445" class="s1" d="m310 242.6v-66.3" />
			<path id="path497" class="s1" d="m304.8 232.7l-20.8-12v-7l15.6 9v-40.5l-35.1-20.3v18l-6-3.4v-24l46.3 26.7z" />
			<path id="path511" class="s1" d="m346.3 155.2l-135.8-78.4" />
			<path id="path513" class="s1" d="m210.5 76.8v72" />
			<path id="path515" class="s1" d="m210.5 148.8l6 3.4" />
			<path id="path517" class="s1" d="m216.5 152.2v-66" />
			<path id="path519" class="s1" d="m216.5 86.2l124.6 72" />
			<path id="path523" class="s1" d="m346.3 155.2l-135.8-78.4" />
			<path id="path525" class="s1" d="m210.5 76.8v72" />
			<path id="path527" class="s1" d="m210.5 148.8l6 3.4" />
			<path id="path529" class="s1" d="m216.5 152.2v-66" />
			<path id="path531" class="s1" d="m216.5 86.2l124.6 72" />
			<path id="path535" class="s1" d="m335.9 161.2l-113.4-65.5" />
			<path id="path537" class="s1" d="m222.5 95.7v60" />
			<path id="path539" class="s1" d="m222.5 155.7l6 3.4" />
			<path id="path541" class="s1" d="m228.5 159.1v-54" />
			<path id="path543" class="s1" d="m228.5 105.1l102.2 59.1" />
			<path id="path559" class="s1" d="m335.9 161.2l0.1 131l-52-30v-6.9l46.8 27l-0.1-118.1l-102.2-59.1v54l-6-3.4v-60z" />
			<path id="path571" class="s1" d="m325.5 167.2l-91-52.6" />
			<path id="path573" class="s1" d="m234.5 114.6v48" />
			<path id="path575" class="s1" d="m234.5 162.6l6 3.5" />
			<path id="path577" class="s1" d="m240.5 166.1v-42" />
			<path id="path579" class="s1" d="m240.5 124.1l79.8 46.1" />
			<path id="path583" class="s1" d="m315.1 173.2l-68.6-39.7" />
			<path id="path585" class="s1" d="m246.5 133.5v36" />
			<path id="path587" class="s1" d="m246.5 169.5l6 3.5" />
			<path id="path589" class="s1" d="m252.5 173v-30" />
			<path id="path591" class="s1" d="m252.5 143l57.4 33.2" />
			<path id="path619" class="s1" d="m325.6 167.2v105.2l-41.6-24v-7l36.4 21v-92.2l-79.9-46.1v42l-6-3.5v-48z" />
			<path id="path631" class="s1" d="m315.2 173.2v79.3l-31.2-18v-6.9l26 15v-66.4l-57.5-33.2v30l-6-3.5v-36z" />
			<path id="path657" class="s1" d="m65.8 155.3l135.8-78.4" />
			<path id="path659" class="s1" d="m201.6 76.9v72" />
			<path id="path661" class="s1" d="m201.6 148.9l-6 3.4" />
			<path id="path663" class="s1" d="m195.6 152.3v-66" />
			<path id="path665" class="s1" d="m195.6 86.3l-124.6 72" />
			<path id="path669" class="s1" d="m65.8 155.3l135.8-78.4" />
			<path id="path671" class="s1" d="m201.6 76.9v72" />
			<path id="path673" class="s1" d="m201.6 148.9l-6 3.4" />
			<path id="path675" class="s1" d="m195.6 152.3v-66" />
			<path id="path677" class="s1" d="m195.6 86.3l-124.6 72" />
			<path id="path681" class="s1" d="m76.2 161.3l113.4-65.5" />
			<path id="path683" class="s1" d="m189.6 95.8v60" />
			<path id="path685" class="s1" d="m189.6 155.8l-6 3.5" />
			<path id="path687" class="s1" d="m183.6 159.3v-54" />
			<path id="path689" class="s1" d="m183.6 105.3l-102.2 59" />
			<path id="path693" class="s1" d="m65.8 155.3l135.8-78.4" />
			<path id="path695" class="s1" d="m201.6 76.9v72" />
			<path id="path697" class="s1" d="m201.6 148.9l-6 3.4" />
			<path id="path699" class="s1" d="m195.6 152.3v-66" />
			<path id="path701" class="s1" d="m195.6 86.3l-124.6 72" />
			<path id="path705" class="s1" d="m76.2 161.3l113.4-65.5" />
			<path id="path707" class="s1" d="m189.6 95.8v60" />
			<path id="path709" class="s1" d="m189.6 155.8l-6 3.5" />
			<path id="path711" class="s1" d="m183.6 159.3v-54" />
			<path id="path713" class="s1" d="m183.6 105.3l-102.2 59" />
			<path id="path717" class="s1" d="m86.6 167.3l91-52.6" />
			<path id="path719" class="s1" d="m177.6 114.7v48" />
			<path id="path721" class="s1" d="m177.6 162.7l-6 3.5" />
			<path id="path723" class="s1" d="m171.6 166.2v-42" />
			<path id="path725" class="s1" d="m171.6 124.2l-79.8 46.1" />
			<path id="path729" class="s1" d="m97 173.3l68.6-39.6" />
			<path id="path731" class="s1" d="m165.6 133.7v36" />
			<path id="path733" class="s1" d="m165.6 169.7l-6 3.4" />
			<path id="path735" class="s1" d="m159.6 173.1v-30" />
			<path id="path737" class="s1" d="m159.6 143.1l-57.4 33.2" />
			<path id="path741" class="s1" d="m65.8 155.3l135.8-78.4v72l-6 3.4v-66l-124.6 72l-0.1 144l57.2-33v6.9l-62.4 36v-156.8v156.8" />
			<path id="path765" class="s1" d="m177.6 114.7v48l-6 3.5v-42l-79.9 46.1v92.3l36.4-21v6.9l-41.6 24l0.1-105.2z" />
			<path id="path777" class="s1" d="m165.6 133.7v36l-6 3.4v-30l-57.5 33.2v66.4l26-15v6.9l-31.2 18v-79.3z" />
			<path id="path803" class="s1" d="m65.7 155.4v156.8" />
			<path id="path805" class="s1" d="m65.7 312.2l62.4-36" />
			<path id="path807" class="s1" d="m128.1 276.2v-6.9" />
			<path id="path809" class="s1" d="m128.1 269.3l-57.2 33" />
			<path id="path811" class="s1" d="m70.9 302.3v-143.9" />
			<path id="path815" class="s1" d="m65.7 155.4v156.8" />
			<path id="path817" class="s1" d="m65.7 312.2l62.4-36" />
			<path id="path819" class="s1" d="m128.1 276.2v-6.9" />
			<path id="path821" class="s1" d="m128.1 269.3l-57.2 33" />
			<path id="path823" class="s1" d="m70.9 302.3v-143.9" />
			<path id="path827" class="s1" d="m76.1 161.4v130.9" />
			<path id="path829" class="s1" d="m76.1 292.3l52-30" />
			<path id="path831" class="s1" d="m128.1 262.3v-6.9" />
			<path id="path833" class="s1" d="m128.1 255.4l-46.8 27" />
			<path id="path835" class="s1" d="m81.3 282.4v-118" />
			<path id="path841" class="s1" d="m65.7 312.2l62.4-36" />
			<path id="path843" class="s1" d="m128.1 276.2v-6.9" />
			<path id="path845" class="s1" d="m128.1 269.3l-57.2 33" />
			<path id="path847" class="s1" d="m70.9 302.3v-143.9" />
			<path id="path851" class="s1" d="m76.1 161.4v130.9" />
			<path id="path853" class="s1" d="m76.1 292.3l52-30" />
			<path id="path855" class="s1" d="m128.1 262.3v-6.9" />
			<path id="path857" class="s1" d="m128.1 255.4l-46.8 27" />
			<path id="path859" class="s1" d="m81.3 282.4v-118" />
			<path id="path863" class="s1" d="m86.5 167.4v105.1" />
			<path id="path865" class="s1" d="m86.5 272.5l41.6-24" />
			<path id="path867" class="s1" d="m128.1 248.5v-6.9" />
			<path id="path869" class="s1" d="m128.1 241.6l-36.4 21" />
			<path id="path871" class="s1" d="m91.7 262.6v-92.2" />
			<path id="path875" class="s1" d="m96.9 173.4v79.2" />
			<path id="path877" class="s1" d="m96.9 252.6l31.2-18" />
			<path id="path879" class="s1" d="m128.1 234.6v-6.9" />
			<path id="path881" class="s1" d="m128.1 227.7l-26 15" />
			<path id="path883" class="s1" d="m102.1 242.7v-66.3" />
			<path id="path899" class="s1" d="m76.2 161.3l113.4-65.5v60l-6 3.5v-54l-102.2 59l-0.1 118.1l46.8-27v6.9l-52 30z" />
			<path id="path939" class="s1" d="m147.6 180v-18l-35.1 20.3v40.6l15.6-9v6.9l-20.8 12v-53.5l46.3-26.7v24z" />
			<path id="path21" fill-rule="evenodd" class="s1" d="m396.5 126.4v219.8l-190.4 109.9l-190.4-109.9v-219.8l190.4-110zm-375.6 3v213.9l185.2 106.9l185.2-106.9v-213.9l-185.2-106.9z" />
		</g>
	</g>
	<g id="layer1">
		<g id="g6198">
			<g id="g41">
				<path id="path47" class="s1" d="m133.3 199.5l69.2 39.4l0.1 78.8l-69.3-39.4z" />
			</g>
			<path id="path59" class="s1" d="m209.6 238.9l69.2-39.4v78.8l-69.2 39.4z" />
			<g id="g61">
				<path id="path67" class="s1" d="m274.3 193.7l-68.2 39.4l-68.2-39.4l68.2-41.4z" />
			</g>
		</g>
		<g id="layer1">
			<g id="g3052">
				<path id="path3055" class="s2" d="m206.1 185q0.4 0.1 0.8 0.1q0.4 0.1 0.9 0.3q0.4 0.1 0.8 0.3l36.5 17.4q0.7 0.4 1.3 0.9q0.6 0.4 1.1 1.1q0.5 0.6 0.9 1.3q0.3 0.7 0.5 1.4l9 39.2q0.2 0.8 0.2 1.6q0 0.8-0.2 1.5q-0.2 0.8-0.5 1.5q-0.3 0.7-0.8 1.3l-25.3 31.5q-0.5 0.6-1.1 1.1q-0.6 0.4-1.3 0.8q-0.8 0.3-1.5 0.5q-0.8 0.2-1.6 0.2h-40.5q-0.8 0-1.6-0.2q-0.8-0.2-1.5-0.5q-0.7-0.4-1.3-0.8q-0.6-0.5-1.1-1.1l-25.3-31.5q0 0-0.1-0.1q0-0.1-0.1-0.1q0-0.1-0.1-0.2q0-0.1-0.1-0.1q-0.4-0.6-0.6-1.3q-0.3-0.6-0.4-1.3q-0.1-0.7-0.1-1.4q0-0.7 0.2-1.3l9-39.3q0.2-0.7 0.5-1.4q0.3-0.7 0.8-1.3q0.5-0.6 1.1-1.1q0.7-0.5 1.4-0.9l36.5-17.4q0.3-0.2 0.6-0.3q0.4-0.1 0.7-0.2q0.3-0.1 0.7-0.1q0.3-0.1 0.7-0.1q0.4 0 0.9 0z" />
				<path id="path3059" fill-rule="evenodd" class="s3" d="m207.7 200.8c0 0.2 0 0.4 0 0.6c0 0.8-0.2 1.4-0.3 2.1c-0.1 1.5-0.3 2.8-0.2 4c0.1 0.5 0.4 0.8 0.7 1c0 0.2 0 0.7 0.1 1c6.9 0.6 13.4 3.8 18.1 8.8l0.8-0.6c0.3 0 0.9 0.1 1.4-0.1c0.9-0.7 1.8-1.6 2.9-2.7c0.5-0.5 0.9-1 1.5-1.5c0.1-0.2 0.3-0.3 0.4-0.4c1.1-0.9 2.6-0.8 3.3 0.2c0.8 0.9 0.5 2.4-0.5 3.2c-0.2 0.1-0.4 0.3-0.5 0.4c-0.6 0.4-1.2 0.7-1.8 1c-1.3 0.8-2.4 1.5-3.3 2.3c-0.4 0.5-0.4 0.9-0.4 1.3c-0.1 0.1-0.5 0.5-0.8 0.7c1.9 2.8 3.3 5.9 4.1 9.4c0.8 3.5 0.9 6.9 0.5 10.2l0.9 0.3c0.1 0.2 0.5 0.8 0.9 0.9c1.1 0.4 2.4 0.5 3.9 0.7c0.8 0 1.4 0 2.1 0.2c0.2 0 0.5 0.1 0.7 0.1c1.3 0.3 2.1 1.5 1.8 2.7c-0.2 1.1-1.5 1.8-2.8 1.6q0 0 0 0q-0.1 0-0.1-0.1c-0.2 0-0.4 0-0.5-0.1c-0.8-0.2-1.3-0.5-2-0.7c-1.5-0.5-2.7-1-3.8-1.2c-0.6 0-0.9 0.3-1.2 0.5c-0.2 0-0.7-0.1-1-0.2c-2.1 6.6-6.5 12.3-12.6 15.9c0.1 0.3 0.3 0.8 0.4 0.9c-0.2 0.4-0.4 0.7-0.2 1.3c0.4 1.1 1.1 2.1 2 3.4c0.4 0.6 0.8 1.1 1.1 1.8c0.1 0.1 0.2 0.4 0.3 0.6c0.6 1.2 0.2 2.6-0.9 3.1c-1.1 0.5-2.5 0-3-1.3c-0.1-0.1-0.2-0.4-0.3-0.5c-0.3-0.7-0.4-1.3-0.7-2c-0.4-1.5-0.9-2.7-1.5-3.7c-0.3-0.5-0.7-0.6-1.1-0.7c0-0.1-0.3-0.6-0.4-0.8q-1.8 0.7-3.8 1.1c-5.7 1.3-11.3 0.8-16.4-1.2l-0.5 0.9c-0.4 0.1-0.7 0.2-1 0.5c-0.8 0.9-1.1 2.5-1.6 3.9c-0.3 0.7-0.4 1.3-0.7 2c0 0.2-0.2 0.4-0.2 0.6q0 0 0 0q-0.1 0-0.1 0c-0.5 1.2-1.9 1.7-3 1.2c-1.1-0.5-1.5-1.9-0.9-3.1c0.1-0.2 0.2-0.4 0.3-0.6c0.3-0.7 0.8-1.1 1.2-1.7c0.8-1.3 1.5-2.5 1.9-3.6c0.1-0.3 0-0.8-0.2-1.2l0.4-1c-5.8-3.4-10.4-8.9-12.6-15.7l-0.9 0.1c-0.3-0.1-0.8-0.4-1.3-0.4c-1.2 0.2-2.4 0.6-3.8 1.1c-0.7 0.3-1.2 0.6-2 0.8c-0.1 0-0.3 0.1-0.5 0.1q0 0-0.1 0q0 0 0 0c-1.3 0.3-2.6-0.4-2.8-1.6c-0.3-1.1 0.5-2.3 1.8-2.6q0 0 0.1-0.1q0 0 0 0c0.2 0 0.4-0.1 0.6-0.1c0.7-0.1 1.3-0.1 2.1-0.2c1.5-0.1 2.8-0.2 3.9-0.6c0.3-0.2 0.7-0.6 0.9-1l0.9-0.2c-1-7.1 0.7-14.1 4.5-19.7l-0.7-0.7c0-0.2-0.1-0.9-0.4-1.2c-0.9-0.8-2-1.5-3.3-2.3c-0.6-0.4-1.2-0.6-1.8-1.1c-0.1-0.1-0.3-0.2-0.5-0.3q0-0.1 0-0.1c-1-0.8-1.3-2.2-0.5-3.2c0.4-0.5 1-0.8 1.7-0.8c0.5 0.1 1.1 0.2 1.5 0.6c0.2 0.1 0.4 0.3 0.5 0.4c0.6 0.5 1 1 1.5 1.5c1 1.1 1.9 2 2.9 2.7c0.5 0.3 0.9 0.2 1.3 0.1c0.1 0.1 0.6 0.4 0.8 0.6c3.7-4 8.6-6.9 14.3-8.2q2-0.4 3.9-0.6l0.1-0.9c0.3-0.3 0.6-0.7 0.7-1.1c0.1-1.2-0.1-2.5-0.2-4c-0.1-0.7-0.3-1.3-0.3-2.1c0-0.2 0-0.4 0-0.6q0 0 0 0c0-1.4 0.9-2.4 2.1-2.4c1.3 0 2.2 1 2.2 2.4zm-7.2 14.9c-4.3 1-8 3.1-10.9 5.9l9.4 6.7q0.5 0.3 1.2 0.4c1 0 1.9-0.9 1.9-1.9h0.1l0.6-11.5q-1.2 0.2-2.3 0.4zm8.4 11.1q0.1 0.6 0.5 1.1c0.6 0.8 1.8 1 2.6 0.3v0.1l9.4-6.7c-3.5-3.4-8.1-5.7-13.1-6.3zm-25.9 13.4l11-3.2c0.4-0.1 0.7-0.3 1-0.7c0.6-0.8 0.5-1.9-0.3-2.6l0.1-0.1l-8.6-7.6c-2.6 4.1-3.8 9.1-3.2 14.2zm33.2-6.6q-0.4 0.4-0.6 1.1c-0.2 1 0.4 2 1.4 2.2v0.1l11.1 3.2c0.2-2.4 0.1-4.9-0.5-7.4c-0.6-2.5-1.6-4.8-2.8-6.8c0 0-8.6 7.6-8.6 7.6zm-14.7 3.4l0.8 3.4l3.2 1.5l3.2-1.5l0.7-3.4l-2.1-2.8h-3.6zm12.8 6.9c-1 0.4-1.4 1.5-1 2.5l4.4 10.6c4.3-2.7 7.5-6.7 9.2-11.4l-11.4-1.9h-0.1q-0.2 0-0.4 0q-0.4 0-0.7 0.2zm-18.8-0.2l-11.3 1.9c1.7 4.9 5 8.8 9.1 11.4l4.4-10.6h-0.1q0.3-0.6 0.1-1.2c-0.2-0.9-1-1.5-1.8-1.5q-0.2 0-0.4 0zm8.3 5.7l-5.6 10c3.9 1.3 8.1 1.6 12.4 0.6q1.1-0.2 2.2-0.6l-5.6-10q-0.3-0.6-0.9-0.9q-0.4-0.2-0.9-0.2c-0.7 0.1-1.3 0.4-1.6 1.1z" />
			</g>
		</g>
	</g>
</svg>